<mxfile host="app.diagrams.net" modified="2024-07-13T12:12:36.952Z" agent="Mozilla/5.0 (Windows NT 10.0; Win64; x64) AppleWebKit/537.36 (KHTML, like Gecko) Chrome/125.0.0.0 Safari/537.36" version="24.6.5" etag="21OFzmQZ91-w2xaXknSq" type="device">
  <diagram name="Hospital ER Diagram" id="0">
    <mxGraphModel dx="1871" dy="2030" grid="1" gridSize="10" guides="1" tooltips="1" connect="1" arrows="1" fold="1" page="1" pageScale="1" pageWidth="827" pageHeight="1169" math="0" shadow="0">
      <root>
        <mxCell id="0" />
        <mxCell id="1" parent="0" />
        <mxCell id="12" style="edgeStyle=orthogonalEdgeStyle;rounded=0;orthogonalLoop=1;jettySize=auto;html=1;exitX=0;exitY=0.267;exitDx=0;exitDy=0;exitPerimeter=0;" parent="1" source="UZzyd5HIegSU0YCeQs_y-31" target="UZzyd5HIegSU0YCeQs_y-25" edge="1">
          <mxGeometry relative="1" as="geometry">
            <mxPoint x="280" y="100" as="sourcePoint" />
            <mxPoint x="240" y="90" as="targetPoint" />
            <Array as="points">
              <mxPoint x="290" y="100" />
            </Array>
          </mxGeometry>
        </mxCell>
        <mxCell id="UZzyd5HIegSU0YCeQs_y-22" value="Hospital" style="swimlane;fontStyle=0;childLayout=stackLayout;horizontal=1;startSize=30;horizontalStack=0;resizeParent=1;resizeParentMax=0;resizeLast=0;collapsible=1;marginBottom=0;whiteSpace=wrap;html=1;" vertex="1" parent="1">
          <mxGeometry x="60" y="25" width="140" height="150" as="geometry" />
        </mxCell>
        <mxCell id="UZzyd5HIegSU0YCeQs_y-23" value="&lt;span style=&quot;text-align: center;&quot;&gt;hospital_id: Long&lt;/span&gt;" style="text;strokeColor=none;fillColor=none;align=left;verticalAlign=middle;spacingLeft=4;spacingRight=4;overflow=hidden;points=[[0,0.5],[1,0.5]];portConstraint=eastwest;rotatable=0;whiteSpace=wrap;html=1;" vertex="1" parent="UZzyd5HIegSU0YCeQs_y-22">
          <mxGeometry y="30" width="140" height="30" as="geometry" />
        </mxCell>
        <mxCell id="UZzyd5HIegSU0YCeQs_y-25" value="&lt;span style=&quot;text-align: center;&quot;&gt;address: String&lt;/span&gt;" style="text;strokeColor=none;fillColor=none;align=left;verticalAlign=middle;spacingLeft=4;spacingRight=4;overflow=hidden;points=[[0,0.5],[1,0.5]];portConstraint=eastwest;rotatable=0;whiteSpace=wrap;html=1;" vertex="1" parent="UZzyd5HIegSU0YCeQs_y-22">
          <mxGeometry y="60" width="140" height="30" as="geometry" />
        </mxCell>
        <mxCell id="UZzyd5HIegSU0YCeQs_y-26" value="&lt;span style=&quot;text-align: center;&quot;&gt;phone: String&lt;/span&gt;" style="text;strokeColor=none;fillColor=none;align=left;verticalAlign=middle;spacingLeft=4;spacingRight=4;overflow=hidden;points=[[0,0.5],[1,0.5]];portConstraint=eastwest;rotatable=0;whiteSpace=wrap;html=1;" vertex="1" parent="UZzyd5HIegSU0YCeQs_y-22">
          <mxGeometry y="90" width="140" height="30" as="geometry" />
        </mxCell>
        <mxCell id="UZzyd5HIegSU0YCeQs_y-27" value="&lt;span style=&quot;text-align: center;&quot;&gt;email: String&lt;/span&gt;" style="text;strokeColor=none;fillColor=none;align=left;verticalAlign=middle;spacingLeft=4;spacingRight=4;overflow=hidden;points=[[0,0.5],[1,0.5]];portConstraint=eastwest;rotatable=0;whiteSpace=wrap;html=1;" vertex="1" parent="UZzyd5HIegSU0YCeQs_y-22">
          <mxGeometry y="120" width="140" height="30" as="geometry" />
        </mxCell>
        <mxCell id="UZzyd5HIegSU0YCeQs_y-28" value="Department" style="swimlane;fontStyle=0;childLayout=stackLayout;horizontal=1;startSize=30;horizontalStack=0;resizeParent=1;resizeParentMax=0;resizeLast=0;collapsible=1;marginBottom=0;whiteSpace=wrap;html=1;" vertex="1" parent="1">
          <mxGeometry x="290" width="140" height="180" as="geometry" />
        </mxCell>
        <mxCell id="UZzyd5HIegSU0YCeQs_y-29" value="&lt;span style=&quot;text-align: center;&quot;&gt;department_id&lt;/span&gt;&lt;span style=&quot;text-align: center;&quot;&gt;: Long&lt;/span&gt;" style="text;strokeColor=none;fillColor=none;align=left;verticalAlign=middle;spacingLeft=4;spacingRight=4;overflow=hidden;points=[[0,0.5],[1,0.5]];portConstraint=eastwest;rotatable=0;whiteSpace=wrap;html=1;" vertex="1" parent="UZzyd5HIegSU0YCeQs_y-28">
          <mxGeometry y="30" width="140" height="30" as="geometry" />
        </mxCell>
        <mxCell id="UZzyd5HIegSU0YCeQs_y-30" value="&lt;span style=&quot;text-align: center;&quot;&gt;hospital_id&lt;/span&gt;&lt;span style=&quot;text-align: center;&quot;&gt;: Long&lt;/span&gt;" style="text;strokeColor=none;fillColor=none;align=left;verticalAlign=middle;spacingLeft=4;spacingRight=4;overflow=hidden;points=[[0,0.5],[1,0.5]];portConstraint=eastwest;rotatable=0;whiteSpace=wrap;html=1;" vertex="1" parent="UZzyd5HIegSU0YCeQs_y-28">
          <mxGeometry y="60" width="140" height="30" as="geometry" />
        </mxCell>
        <mxCell id="UZzyd5HIegSU0YCeQs_y-31" value="&lt;span style=&quot;text-align: center;&quot;&gt;name&lt;/span&gt;&lt;span style=&quot;text-align: center;&quot;&gt;: String&lt;/span&gt;" style="text;strokeColor=none;fillColor=none;align=left;verticalAlign=middle;spacingLeft=4;spacingRight=4;overflow=hidden;points=[[0,0.5],[1,0.5]];portConstraint=eastwest;rotatable=0;whiteSpace=wrap;html=1;" vertex="1" parent="UZzyd5HIegSU0YCeQs_y-28">
          <mxGeometry y="90" width="140" height="30" as="geometry" />
        </mxCell>
        <mxCell id="UZzyd5HIegSU0YCeQs_y-32" value="&lt;span style=&quot;text-align: center;&quot;&gt;lead: String&lt;/span&gt;" style="text;strokeColor=none;fillColor=none;align=left;verticalAlign=middle;spacingLeft=4;spacingRight=4;overflow=hidden;points=[[0,0.5],[1,0.5]];portConstraint=eastwest;rotatable=0;whiteSpace=wrap;html=1;" vertex="1" parent="UZzyd5HIegSU0YCeQs_y-28">
          <mxGeometry y="120" width="140" height="30" as="geometry" />
        </mxCell>
        <mxCell id="UZzyd5HIegSU0YCeQs_y-33" value="&lt;span style=&quot;text-align: center;&quot;&gt;phone: String&lt;/span&gt;" style="text;strokeColor=none;fillColor=none;align=left;verticalAlign=middle;spacingLeft=4;spacingRight=4;overflow=hidden;points=[[0,0.5],[1,0.5]];portConstraint=eastwest;rotatable=0;whiteSpace=wrap;html=1;" vertex="1" parent="UZzyd5HIegSU0YCeQs_y-28">
          <mxGeometry y="150" width="140" height="30" as="geometry" />
        </mxCell>
        <mxCell id="UZzyd5HIegSU0YCeQs_y-44" style="edgeStyle=orthogonalEdgeStyle;rounded=0;orthogonalLoop=1;jettySize=auto;html=1;entryX=1;entryY=0.5;entryDx=0;entryDy=0;" edge="1" parent="1" source="UZzyd5HIegSU0YCeQs_y-34" target="UZzyd5HIegSU0YCeQs_y-31">
          <mxGeometry relative="1" as="geometry" />
        </mxCell>
        <mxCell id="UZzyd5HIegSU0YCeQs_y-34" value="Doctor" style="swimlane;fontStyle=0;childLayout=stackLayout;horizontal=1;startSize=30;horizontalStack=0;resizeParent=1;resizeParentMax=0;resizeLast=0;collapsible=1;marginBottom=0;whiteSpace=wrap;html=1;" vertex="1" parent="1">
          <mxGeometry x="610" y="-90" width="140" height="240" as="geometry" />
        </mxCell>
        <mxCell id="UZzyd5HIegSU0YCeQs_y-35" value="&lt;span style=&quot;text-align: center;&quot;&gt;doctor_id&lt;/span&gt;&lt;span style=&quot;text-align: center;&quot;&gt;: Long&lt;/span&gt;" style="text;strokeColor=none;fillColor=none;align=left;verticalAlign=middle;spacingLeft=4;spacingRight=4;overflow=hidden;points=[[0,0.5],[1,0.5]];portConstraint=eastwest;rotatable=0;whiteSpace=wrap;html=1;" vertex="1" parent="UZzyd5HIegSU0YCeQs_y-34">
          <mxGeometry y="30" width="140" height="30" as="geometry" />
        </mxCell>
        <mxCell id="UZzyd5HIegSU0YCeQs_y-36" value="&lt;span style=&quot;text-align: center;&quot;&gt;department_id&lt;/span&gt;&lt;span style=&quot;text-align: center;&quot;&gt;: Long&lt;/span&gt;" style="text;strokeColor=none;fillColor=none;align=left;verticalAlign=middle;spacingLeft=4;spacingRight=4;overflow=hidden;points=[[0,0.5],[1,0.5]];portConstraint=eastwest;rotatable=0;whiteSpace=wrap;html=1;" vertex="1" parent="UZzyd5HIegSU0YCeQs_y-34">
          <mxGeometry y="60" width="140" height="30" as="geometry" />
        </mxCell>
        <mxCell id="UZzyd5HIegSU0YCeQs_y-37" value="&lt;span style=&quot;text-align: center;&quot;&gt;name&lt;/span&gt;&lt;span style=&quot;text-align: center;&quot;&gt;: String&lt;/span&gt;" style="text;strokeColor=none;fillColor=none;align=left;verticalAlign=middle;spacingLeft=4;spacingRight=4;overflow=hidden;points=[[0,0.5],[1,0.5]];portConstraint=eastwest;rotatable=0;whiteSpace=wrap;html=1;" vertex="1" parent="UZzyd5HIegSU0YCeQs_y-34">
          <mxGeometry y="90" width="140" height="30" as="geometry" />
        </mxCell>
        <mxCell id="UZzyd5HIegSU0YCeQs_y-38" value="&lt;span style=&quot;text-align: center;&quot;&gt;specialization&lt;/span&gt;&lt;span style=&quot;text-align: center;&quot;&gt;: String&lt;/span&gt;" style="text;strokeColor=none;fillColor=none;align=left;verticalAlign=middle;spacingLeft=4;spacingRight=4;overflow=hidden;points=[[0,0.5],[1,0.5]];portConstraint=eastwest;rotatable=0;whiteSpace=wrap;html=1;" vertex="1" parent="UZzyd5HIegSU0YCeQs_y-34">
          <mxGeometry y="120" width="140" height="30" as="geometry" />
        </mxCell>
        <mxCell id="UZzyd5HIegSU0YCeQs_y-39" value="&lt;span style=&quot;text-align: center;&quot;&gt;role: String&lt;/span&gt;" style="text;strokeColor=none;fillColor=none;align=left;verticalAlign=middle;spacingLeft=4;spacingRight=4;overflow=hidden;points=[[0,0.5],[1,0.5]];portConstraint=eastwest;rotatable=0;whiteSpace=wrap;html=1;" vertex="1" parent="UZzyd5HIegSU0YCeQs_y-34">
          <mxGeometry y="150" width="140" height="30" as="geometry" />
        </mxCell>
        <mxCell id="UZzyd5HIegSU0YCeQs_y-40" value="&lt;span style=&quot;text-align: center;&quot;&gt;phone: String&lt;/span&gt;" style="text;strokeColor=none;fillColor=none;align=left;verticalAlign=middle;spacingLeft=4;spacingRight=4;overflow=hidden;points=[[0,0.5],[1,0.5]];portConstraint=eastwest;rotatable=0;whiteSpace=wrap;html=1;" vertex="1" parent="UZzyd5HIegSU0YCeQs_y-34">
          <mxGeometry y="180" width="140" height="30" as="geometry" />
        </mxCell>
        <mxCell id="UZzyd5HIegSU0YCeQs_y-41" value="&lt;span style=&quot;text-align: center;&quot;&gt;email: String&lt;/span&gt;" style="text;strokeColor=none;fillColor=none;align=left;verticalAlign=middle;spacingLeft=4;spacingRight=4;overflow=hidden;points=[[0,0.5],[1,0.5]];portConstraint=eastwest;rotatable=0;whiteSpace=wrap;html=1;" vertex="1" parent="UZzyd5HIegSU0YCeQs_y-34">
          <mxGeometry y="210" width="140" height="30" as="geometry" />
        </mxCell>
        <mxCell id="UZzyd5HIegSU0YCeQs_y-54" style="edgeStyle=orthogonalEdgeStyle;rounded=0;orthogonalLoop=1;jettySize=auto;html=1;entryX=1;entryY=0.5;entryDx=0;entryDy=0;" edge="1" parent="1" source="UZzyd5HIegSU0YCeQs_y-48" target="UZzyd5HIegSU0YCeQs_y-33">
          <mxGeometry relative="1" as="geometry">
            <Array as="points">
              <mxPoint x="530" y="290" />
              <mxPoint x="530" y="165" />
            </Array>
          </mxGeometry>
        </mxCell>
        <mxCell id="UZzyd5HIegSU0YCeQs_y-48" value="Room" style="swimlane;fontStyle=0;childLayout=stackLayout;horizontal=1;startSize=30;horizontalStack=0;resizeParent=1;resizeParentMax=0;resizeLast=0;collapsible=1;marginBottom=0;whiteSpace=wrap;html=1;" vertex="1" parent="1">
          <mxGeometry x="500" y="370" width="140" height="180" as="geometry" />
        </mxCell>
        <mxCell id="UZzyd5HIegSU0YCeQs_y-49" value="&lt;span style=&quot;text-align: center;&quot;&gt;room_id&lt;/span&gt;&lt;span style=&quot;text-align: center;&quot;&gt;: Long&lt;/span&gt;" style="text;strokeColor=none;fillColor=none;align=left;verticalAlign=middle;spacingLeft=4;spacingRight=4;overflow=hidden;points=[[0,0.5],[1,0.5]];portConstraint=eastwest;rotatable=0;whiteSpace=wrap;html=1;" vertex="1" parent="UZzyd5HIegSU0YCeQs_y-48">
          <mxGeometry y="30" width="140" height="30" as="geometry" />
        </mxCell>
        <mxCell id="UZzyd5HIegSU0YCeQs_y-50" value="&lt;span style=&quot;text-align: center;&quot;&gt;department_id&lt;/span&gt;&lt;span style=&quot;text-align: center;&quot;&gt;: Long&lt;/span&gt;" style="text;strokeColor=none;fillColor=none;align=left;verticalAlign=middle;spacingLeft=4;spacingRight=4;overflow=hidden;points=[[0,0.5],[1,0.5]];portConstraint=eastwest;rotatable=0;whiteSpace=wrap;html=1;" vertex="1" parent="UZzyd5HIegSU0YCeQs_y-48">
          <mxGeometry y="60" width="140" height="30" as="geometry" />
        </mxCell>
        <mxCell id="UZzyd5HIegSU0YCeQs_y-51" value="&lt;span style=&quot;text-align: center;&quot;&gt;room_number&lt;/span&gt;&lt;span style=&quot;text-align: center;&quot;&gt;: int&lt;/span&gt;" style="text;strokeColor=none;fillColor=none;align=left;verticalAlign=middle;spacingLeft=4;spacingRight=4;overflow=hidden;points=[[0,0.5],[1,0.5]];portConstraint=eastwest;rotatable=0;whiteSpace=wrap;html=1;" vertex="1" parent="UZzyd5HIegSU0YCeQs_y-48">
          <mxGeometry y="90" width="140" height="30" as="geometry" />
        </mxCell>
        <mxCell id="UZzyd5HIegSU0YCeQs_y-52" value="&lt;span style=&quot;text-align: center;&quot;&gt;status: String&lt;/span&gt;" style="text;strokeColor=none;fillColor=none;align=left;verticalAlign=middle;spacingLeft=4;spacingRight=4;overflow=hidden;points=[[0,0.5],[1,0.5]];portConstraint=eastwest;rotatable=0;whiteSpace=wrap;html=1;" vertex="1" parent="UZzyd5HIegSU0YCeQs_y-48">
          <mxGeometry y="120" width="140" height="30" as="geometry" />
        </mxCell>
        <mxCell id="UZzyd5HIegSU0YCeQs_y-53" value="&lt;span style=&quot;text-align: center;&quot;&gt;doctor_id: Long&lt;/span&gt;" style="text;strokeColor=none;fillColor=none;align=left;verticalAlign=middle;spacingLeft=4;spacingRight=4;overflow=hidden;points=[[0,0.5],[1,0.5]];portConstraint=eastwest;rotatable=0;whiteSpace=wrap;html=1;" vertex="1" parent="UZzyd5HIegSU0YCeQs_y-48">
          <mxGeometry y="150" width="140" height="30" as="geometry" />
        </mxCell>
        <mxCell id="UZzyd5HIegSU0YCeQs_y-55" style="edgeStyle=orthogonalEdgeStyle;rounded=0;orthogonalLoop=1;jettySize=auto;html=1;entryX=0.5;entryY=1;entryDx=0;entryDy=0;entryPerimeter=0;" edge="1" parent="1" source="UZzyd5HIegSU0YCeQs_y-48" target="UZzyd5HIegSU0YCeQs_y-41">
          <mxGeometry relative="1" as="geometry" />
        </mxCell>
        <mxCell id="UZzyd5HIegSU0YCeQs_y-70" style="edgeStyle=orthogonalEdgeStyle;rounded=0;orthogonalLoop=1;jettySize=auto;html=1;entryX=1;entryY=0.5;entryDx=0;entryDy=0;" edge="1" parent="1" source="UZzyd5HIegSU0YCeQs_y-56" target="UZzyd5HIegSU0YCeQs_y-41">
          <mxGeometry relative="1" as="geometry" />
        </mxCell>
        <mxCell id="UZzyd5HIegSU0YCeQs_y-101" style="edgeStyle=orthogonalEdgeStyle;rounded=0;orthogonalLoop=1;jettySize=auto;html=1;" edge="1" parent="1" source="UZzyd5HIegSU0YCeQs_y-56" target="UZzyd5HIegSU0YCeQs_y-80">
          <mxGeometry relative="1" as="geometry" />
        </mxCell>
        <mxCell id="UZzyd5HIegSU0YCeQs_y-56" value="Medical Record" style="swimlane;fontStyle=0;childLayout=stackLayout;horizontal=1;startSize=30;horizontalStack=0;resizeParent=1;resizeParentMax=0;resizeLast=0;collapsible=1;marginBottom=0;whiteSpace=wrap;html=1;" vertex="1" parent="1">
          <mxGeometry x="810" y="100" width="140" height="240" as="geometry" />
        </mxCell>
        <mxCell id="UZzyd5HIegSU0YCeQs_y-57" value="&lt;span style=&quot;text-align: center;&quot;&gt;record_id&lt;/span&gt;&lt;span style=&quot;text-align: center;&quot;&gt;: Long&lt;/span&gt;" style="text;strokeColor=none;fillColor=none;align=left;verticalAlign=middle;spacingLeft=4;spacingRight=4;overflow=hidden;points=[[0,0.5],[1,0.5]];portConstraint=eastwest;rotatable=0;whiteSpace=wrap;html=1;" vertex="1" parent="UZzyd5HIegSU0YCeQs_y-56">
          <mxGeometry y="30" width="140" height="30" as="geometry" />
        </mxCell>
        <mxCell id="UZzyd5HIegSU0YCeQs_y-58" value="&lt;span style=&quot;text-align: center;&quot;&gt;patient_id&lt;/span&gt;&lt;span style=&quot;text-align: center;&quot;&gt;: Long&lt;/span&gt;" style="text;strokeColor=none;fillColor=none;align=left;verticalAlign=middle;spacingLeft=4;spacingRight=4;overflow=hidden;points=[[0,0.5],[1,0.5]];portConstraint=eastwest;rotatable=0;whiteSpace=wrap;html=1;" vertex="1" parent="UZzyd5HIegSU0YCeQs_y-56">
          <mxGeometry y="60" width="140" height="30" as="geometry" />
        </mxCell>
        <mxCell id="UZzyd5HIegSU0YCeQs_y-59" value="&lt;span style=&quot;text-align: center;&quot;&gt;medication_id&lt;/span&gt;&lt;span style=&quot;text-align: center;&quot;&gt;: int&lt;/span&gt;" style="text;strokeColor=none;fillColor=none;align=left;verticalAlign=middle;spacingLeft=4;spacingRight=4;overflow=hidden;points=[[0,0.5],[1,0.5]];portConstraint=eastwest;rotatable=0;whiteSpace=wrap;html=1;" vertex="1" parent="UZzyd5HIegSU0YCeQs_y-56">
          <mxGeometry y="90" width="140" height="30" as="geometry" />
        </mxCell>
        <mxCell id="UZzyd5HIegSU0YCeQs_y-60" value="&lt;span style=&quot;text-align: center;&quot;&gt;sick_id: String&lt;/span&gt;" style="text;strokeColor=none;fillColor=none;align=left;verticalAlign=middle;spacingLeft=4;spacingRight=4;overflow=hidden;points=[[0,0.5],[1,0.5]];portConstraint=eastwest;rotatable=0;whiteSpace=wrap;html=1;" vertex="1" parent="UZzyd5HIegSU0YCeQs_y-56">
          <mxGeometry y="120" width="140" height="30" as="geometry" />
        </mxCell>
        <mxCell id="UZzyd5HIegSU0YCeQs_y-61" value="&lt;span style=&quot;text-align: center;&quot;&gt;doctor_id: Long&lt;/span&gt;" style="text;strokeColor=none;fillColor=none;align=left;verticalAlign=middle;spacingLeft=4;spacingRight=4;overflow=hidden;points=[[0,0.5],[1,0.5]];portConstraint=eastwest;rotatable=0;whiteSpace=wrap;html=1;" vertex="1" parent="UZzyd5HIegSU0YCeQs_y-56">
          <mxGeometry y="150" width="140" height="30" as="geometry" />
        </mxCell>
        <mxCell id="UZzyd5HIegSU0YCeQs_y-68" value="&lt;span style=&quot;text-align: center;&quot;&gt;remind: String&lt;/span&gt;" style="text;strokeColor=none;fillColor=none;align=left;verticalAlign=middle;spacingLeft=4;spacingRight=4;overflow=hidden;points=[[0,0.5],[1,0.5]];portConstraint=eastwest;rotatable=0;whiteSpace=wrap;html=1;" vertex="1" parent="UZzyd5HIegSU0YCeQs_y-56">
          <mxGeometry y="180" width="140" height="30" as="geometry" />
        </mxCell>
        <mxCell id="UZzyd5HIegSU0YCeQs_y-69" value="&lt;span style=&quot;text-align: center;&quot;&gt;date: Date&lt;/span&gt;" style="text;strokeColor=none;fillColor=none;align=left;verticalAlign=middle;spacingLeft=4;spacingRight=4;overflow=hidden;points=[[0,0.5],[1,0.5]];portConstraint=eastwest;rotatable=0;whiteSpace=wrap;html=1;" vertex="1" parent="UZzyd5HIegSU0YCeQs_y-56">
          <mxGeometry y="210" width="140" height="30" as="geometry" />
        </mxCell>
        <mxCell id="UZzyd5HIegSU0YCeQs_y-72" style="edgeStyle=orthogonalEdgeStyle;rounded=0;orthogonalLoop=1;jettySize=auto;html=1;entryX=1;entryY=0.5;entryDx=0;entryDy=0;" edge="1" parent="1" source="UZzyd5HIegSU0YCeQs_y-62" target="UZzyd5HIegSU0YCeQs_y-61">
          <mxGeometry relative="1" as="geometry">
            <Array as="points">
              <mxPoint x="1060" y="265" />
            </Array>
          </mxGeometry>
        </mxCell>
        <mxCell id="UZzyd5HIegSU0YCeQs_y-62" value="Category_Sick" style="swimlane;fontStyle=0;childLayout=stackLayout;horizontal=1;startSize=30;horizontalStack=0;resizeParent=1;resizeParentMax=0;resizeLast=0;collapsible=1;marginBottom=0;whiteSpace=wrap;html=1;" vertex="1" parent="1">
          <mxGeometry x="1010" y="330" width="140" height="150" as="geometry" />
        </mxCell>
        <mxCell id="UZzyd5HIegSU0YCeQs_y-63" value="&lt;span style=&quot;text-align: center;&quot;&gt;category_id&lt;/span&gt;&lt;span style=&quot;text-align: center;&quot;&gt;: Long&lt;/span&gt;" style="text;strokeColor=none;fillColor=none;align=left;verticalAlign=middle;spacingLeft=4;spacingRight=4;overflow=hidden;points=[[0,0.5],[1,0.5]];portConstraint=eastwest;rotatable=0;whiteSpace=wrap;html=1;" vertex="1" parent="UZzyd5HIegSU0YCeQs_y-62">
          <mxGeometry y="30" width="140" height="30" as="geometry" />
        </mxCell>
        <mxCell id="UZzyd5HIegSU0YCeQs_y-64" value="&lt;span style=&quot;text-align: center;&quot;&gt;describe: String&lt;/span&gt;" style="text;strokeColor=none;fillColor=none;align=left;verticalAlign=middle;spacingLeft=4;spacingRight=4;overflow=hidden;points=[[0,0.5],[1,0.5]];portConstraint=eastwest;rotatable=0;whiteSpace=wrap;html=1;" vertex="1" parent="UZzyd5HIegSU0YCeQs_y-62">
          <mxGeometry y="60" width="140" height="30" as="geometry" />
        </mxCell>
        <mxCell id="UZzyd5HIegSU0YCeQs_y-65" value="&lt;span style=&quot;text-align: center;&quot;&gt;status&lt;/span&gt;&lt;span style=&quot;text-align: center;&quot;&gt;: String&lt;/span&gt;" style="text;strokeColor=none;fillColor=none;align=left;verticalAlign=middle;spacingLeft=4;spacingRight=4;overflow=hidden;points=[[0,0.5],[1,0.5]];portConstraint=eastwest;rotatable=0;whiteSpace=wrap;html=1;" vertex="1" parent="UZzyd5HIegSU0YCeQs_y-62">
          <mxGeometry y="90" width="140" height="30" as="geometry" />
        </mxCell>
        <mxCell id="UZzyd5HIegSU0YCeQs_y-67" value="&lt;span style=&quot;text-align: center;&quot;&gt;name: String&lt;/span&gt;" style="text;strokeColor=none;fillColor=none;align=left;verticalAlign=middle;spacingLeft=4;spacingRight=4;overflow=hidden;points=[[0,0.5],[1,0.5]];portConstraint=eastwest;rotatable=0;whiteSpace=wrap;html=1;" vertex="1" parent="UZzyd5HIegSU0YCeQs_y-62">
          <mxGeometry y="120" width="140" height="30" as="geometry" />
        </mxCell>
        <mxCell id="UZzyd5HIegSU0YCeQs_y-79" style="edgeStyle=orthogonalEdgeStyle;rounded=0;orthogonalLoop=1;jettySize=auto;html=1;entryX=1;entryY=0.5;entryDx=0;entryDy=0;" edge="1" parent="1" source="UZzyd5HIegSU0YCeQs_y-73" target="UZzyd5HIegSU0YCeQs_y-59">
          <mxGeometry relative="1" as="geometry" />
        </mxCell>
        <mxCell id="UZzyd5HIegSU0YCeQs_y-73" value="Medication" style="swimlane;fontStyle=0;childLayout=stackLayout;horizontal=1;startSize=30;horizontalStack=0;resizeParent=1;resizeParentMax=0;resizeLast=0;collapsible=1;marginBottom=0;whiteSpace=wrap;html=1;" vertex="1" parent="1">
          <mxGeometry x="1080" y="110" width="140" height="180" as="geometry" />
        </mxCell>
        <mxCell id="UZzyd5HIegSU0YCeQs_y-74" value="&lt;span style=&quot;text-align: center;&quot;&gt;medication_id&lt;/span&gt;&lt;span style=&quot;text-align: center;&quot;&gt;: Long&lt;/span&gt;" style="text;strokeColor=none;fillColor=none;align=left;verticalAlign=middle;spacingLeft=4;spacingRight=4;overflow=hidden;points=[[0,0.5],[1,0.5]];portConstraint=eastwest;rotatable=0;whiteSpace=wrap;html=1;" vertex="1" parent="UZzyd5HIegSU0YCeQs_y-73">
          <mxGeometry y="30" width="140" height="30" as="geometry" />
        </mxCell>
        <mxCell id="UZzyd5HIegSU0YCeQs_y-75" value="&lt;span style=&quot;text-align: center;&quot;&gt;name&lt;/span&gt;&lt;span style=&quot;text-align: center;&quot;&gt;: String&lt;/span&gt;" style="text;strokeColor=none;fillColor=none;align=left;verticalAlign=middle;spacingLeft=4;spacingRight=4;overflow=hidden;points=[[0,0.5],[1,0.5]];portConstraint=eastwest;rotatable=0;whiteSpace=wrap;html=1;" vertex="1" parent="UZzyd5HIegSU0YCeQs_y-73">
          <mxGeometry y="60" width="140" height="30" as="geometry" />
        </mxCell>
        <mxCell id="UZzyd5HIegSU0YCeQs_y-76" value="&lt;span style=&quot;text-align: center;&quot;&gt;description&lt;/span&gt;&lt;span style=&quot;text-align: center;&quot;&gt;: String&lt;/span&gt;" style="text;strokeColor=none;fillColor=none;align=left;verticalAlign=middle;spacingLeft=4;spacingRight=4;overflow=hidden;points=[[0,0.5],[1,0.5]];portConstraint=eastwest;rotatable=0;whiteSpace=wrap;html=1;" vertex="1" parent="UZzyd5HIegSU0YCeQs_y-73">
          <mxGeometry y="90" width="140" height="30" as="geometry" />
        </mxCell>
        <mxCell id="UZzyd5HIegSU0YCeQs_y-77" value="&lt;span style=&quot;text-align: center;&quot;&gt;dosage&lt;/span&gt;&lt;span style=&quot;text-align: center;&quot;&gt;: String&lt;/span&gt;" style="text;strokeColor=none;fillColor=none;align=left;verticalAlign=middle;spacingLeft=4;spacingRight=4;overflow=hidden;points=[[0,0.5],[1,0.5]];portConstraint=eastwest;rotatable=0;whiteSpace=wrap;html=1;" vertex="1" parent="UZzyd5HIegSU0YCeQs_y-73">
          <mxGeometry y="120" width="140" height="30" as="geometry" />
        </mxCell>
        <mxCell id="UZzyd5HIegSU0YCeQs_y-78" value="&lt;span style=&quot;text-align: center;&quot;&gt;side_effects&lt;/span&gt;&lt;span style=&quot;text-align: center;&quot;&gt;: String&lt;/span&gt;" style="text;strokeColor=none;fillColor=none;align=left;verticalAlign=middle;spacingLeft=4;spacingRight=4;overflow=hidden;points=[[0,0.5],[1,0.5]];portConstraint=eastwest;rotatable=0;whiteSpace=wrap;html=1;" vertex="1" parent="UZzyd5HIegSU0YCeQs_y-73">
          <mxGeometry y="150" width="140" height="30" as="geometry" />
        </mxCell>
        <mxCell id="UZzyd5HIegSU0YCeQs_y-80" value="Patient" style="swimlane;fontStyle=0;childLayout=stackLayout;horizontal=1;startSize=30;horizontalStack=0;resizeParent=1;resizeParentMax=0;resizeLast=0;collapsible=1;marginBottom=0;whiteSpace=wrap;html=1;" vertex="1" parent="1">
          <mxGeometry x="785" y="390" width="190" height="330" as="geometry" />
        </mxCell>
        <mxCell id="UZzyd5HIegSU0YCeQs_y-82" value="&lt;span style=&quot;text-align: center;&quot;&gt;patient_id&lt;/span&gt;&lt;span style=&quot;text-align: center;&quot;&gt;: Long&lt;/span&gt;" style="text;strokeColor=none;fillColor=none;align=left;verticalAlign=middle;spacingLeft=4;spacingRight=4;overflow=hidden;points=[[0,0.5],[1,0.5]];portConstraint=eastwest;rotatable=0;whiteSpace=wrap;html=1;" vertex="1" parent="UZzyd5HIegSU0YCeQs_y-80">
          <mxGeometry y="30" width="190" height="30" as="geometry" />
        </mxCell>
        <mxCell id="UZzyd5HIegSU0YCeQs_y-83" value="&lt;span style=&quot;text-align: center;&quot;&gt;name&lt;/span&gt;&lt;span style=&quot;text-align: center;&quot;&gt;: String&lt;/span&gt;" style="text;strokeColor=none;fillColor=none;align=left;verticalAlign=middle;spacingLeft=4;spacingRight=4;overflow=hidden;points=[[0,0.5],[1,0.5]];portConstraint=eastwest;rotatable=0;whiteSpace=wrap;html=1;" vertex="1" parent="UZzyd5HIegSU0YCeQs_y-80">
          <mxGeometry y="60" width="190" height="30" as="geometry" />
        </mxCell>
        <mxCell id="UZzyd5HIegSU0YCeQs_y-84" value="&lt;span style=&quot;text-align: center;&quot;&gt;address: String&lt;/span&gt;" style="text;strokeColor=none;fillColor=none;align=left;verticalAlign=middle;spacingLeft=4;spacingRight=4;overflow=hidden;points=[[0,0.5],[1,0.5]];portConstraint=eastwest;rotatable=0;whiteSpace=wrap;html=1;" vertex="1" parent="UZzyd5HIegSU0YCeQs_y-80">
          <mxGeometry y="90" width="190" height="30" as="geometry" />
        </mxCell>
        <mxCell id="UZzyd5HIegSU0YCeQs_y-85" value="&lt;span style=&quot;text-align: center;&quot;&gt;phone: Long&lt;/span&gt;" style="text;strokeColor=none;fillColor=none;align=left;verticalAlign=middle;spacingLeft=4;spacingRight=4;overflow=hidden;points=[[0,0.5],[1,0.5]];portConstraint=eastwest;rotatable=0;whiteSpace=wrap;html=1;" vertex="1" parent="UZzyd5HIegSU0YCeQs_y-80">
          <mxGeometry y="120" width="190" height="30" as="geometry" />
        </mxCell>
        <mxCell id="UZzyd5HIegSU0YCeQs_y-86" value="&lt;span style=&quot;text-align: center;&quot;&gt;email: String&lt;/span&gt;" style="text;strokeColor=none;fillColor=none;align=left;verticalAlign=middle;spacingLeft=4;spacingRight=4;overflow=hidden;points=[[0,0.5],[1,0.5]];portConstraint=eastwest;rotatable=0;whiteSpace=wrap;html=1;" vertex="1" parent="UZzyd5HIegSU0YCeQs_y-80">
          <mxGeometry y="150" width="190" height="30" as="geometry" />
        </mxCell>
        <mxCell id="UZzyd5HIegSU0YCeQs_y-87" value="&lt;span style=&quot;text-align: center;&quot;&gt;gender: Date&lt;/span&gt;" style="text;strokeColor=none;fillColor=none;align=left;verticalAlign=middle;spacingLeft=4;spacingRight=4;overflow=hidden;points=[[0,0.5],[1,0.5]];portConstraint=eastwest;rotatable=0;whiteSpace=wrap;html=1;" vertex="1" parent="UZzyd5HIegSU0YCeQs_y-80">
          <mxGeometry y="180" width="190" height="30" as="geometry" />
        </mxCell>
        <mxCell id="UZzyd5HIegSU0YCeQs_y-88" value="&lt;span style=&quot;text-align: center;&quot;&gt;citizen_identification_card: int&lt;/span&gt;" style="text;strokeColor=none;fillColor=none;align=left;verticalAlign=middle;spacingLeft=4;spacingRight=4;overflow=hidden;points=[[0,0.5],[1,0.5]];portConstraint=eastwest;rotatable=0;whiteSpace=wrap;html=1;" vertex="1" parent="UZzyd5HIegSU0YCeQs_y-80">
          <mxGeometry y="210" width="190" height="30" as="geometry" />
        </mxCell>
        <mxCell id="UZzyd5HIegSU0YCeQs_y-97" value="&lt;span style=&quot;text-align: center;&quot;&gt;countryside: string&lt;/span&gt;" style="text;strokeColor=none;fillColor=none;align=left;verticalAlign=middle;spacingLeft=4;spacingRight=4;overflow=hidden;points=[[0,0.5],[1,0.5]];portConstraint=eastwest;rotatable=0;whiteSpace=wrap;html=1;" vertex="1" parent="UZzyd5HIegSU0YCeQs_y-80">
          <mxGeometry y="240" width="190" height="30" as="geometry" />
        </mxCell>
        <mxCell id="UZzyd5HIegSU0YCeQs_y-98" value="&lt;span style=&quot;text-align: center;&quot;&gt;job: string&lt;/span&gt;" style="text;strokeColor=none;fillColor=none;align=left;verticalAlign=middle;spacingLeft=4;spacingRight=4;overflow=hidden;points=[[0,0.5],[1,0.5]];portConstraint=eastwest;rotatable=0;whiteSpace=wrap;html=1;" vertex="1" parent="UZzyd5HIegSU0YCeQs_y-80">
          <mxGeometry y="270" width="190" height="30" as="geometry" />
        </mxCell>
        <mxCell id="UZzyd5HIegSU0YCeQs_y-100" value="&lt;span style=&quot;text-align: center;&quot;&gt;image: string&lt;/span&gt;" style="text;strokeColor=none;fillColor=none;align=left;verticalAlign=middle;spacingLeft=4;spacingRight=4;overflow=hidden;points=[[0,0.5],[1,0.5]];portConstraint=eastwest;rotatable=0;whiteSpace=wrap;html=1;" vertex="1" parent="UZzyd5HIegSU0YCeQs_y-80">
          <mxGeometry y="300" width="190" height="30" as="geometry" />
        </mxCell>
        <mxCell id="UZzyd5HIegSU0YCeQs_y-111" style="edgeStyle=orthogonalEdgeStyle;rounded=0;orthogonalLoop=1;jettySize=auto;html=1;" edge="1" parent="1" source="UZzyd5HIegSU0YCeQs_y-102" target="UZzyd5HIegSU0YCeQs_y-88">
          <mxGeometry relative="1" as="geometry" />
        </mxCell>
        <mxCell id="UZzyd5HIegSU0YCeQs_y-112" style="edgeStyle=orthogonalEdgeStyle;rounded=0;orthogonalLoop=1;jettySize=auto;html=1;entryX=1;entryY=0.5;entryDx=0;entryDy=0;" edge="1" parent="1" source="UZzyd5HIegSU0YCeQs_y-102" target="UZzyd5HIegSU0YCeQs_y-36">
          <mxGeometry relative="1" as="geometry">
            <Array as="points">
              <mxPoint x="1270" y="900" />
              <mxPoint x="1270" y="-15" />
            </Array>
          </mxGeometry>
        </mxCell>
        <mxCell id="UZzyd5HIegSU0YCeQs_y-102" value="Appointment" style="swimlane;fontStyle=0;childLayout=stackLayout;horizontal=1;startSize=30;horizontalStack=0;resizeParent=1;resizeParentMax=0;resizeLast=0;collapsible=1;marginBottom=0;whiteSpace=wrap;html=1;" vertex="1" parent="1">
          <mxGeometry x="460" y="680" width="220" height="240" as="geometry" />
        </mxCell>
        <mxCell id="UZzyd5HIegSU0YCeQs_y-103" value="&lt;span style=&quot;text-align: center;&quot;&gt;appointment_id&lt;/span&gt;&lt;span style=&quot;text-align: center;&quot;&gt;: Long&lt;/span&gt;" style="text;strokeColor=none;fillColor=none;align=left;verticalAlign=middle;spacingLeft=4;spacingRight=4;overflow=hidden;points=[[0,0.5],[1,0.5]];portConstraint=eastwest;rotatable=0;whiteSpace=wrap;html=1;" vertex="1" parent="UZzyd5HIegSU0YCeQs_y-102">
          <mxGeometry y="30" width="220" height="30" as="geometry" />
        </mxCell>
        <mxCell id="UZzyd5HIegSU0YCeQs_y-104" value="&lt;span style=&quot;text-align: center;&quot;&gt;patient_id&lt;/span&gt;&lt;span style=&quot;text-align: center;&quot;&gt;: Long&lt;/span&gt;" style="text;strokeColor=none;fillColor=none;align=left;verticalAlign=middle;spacingLeft=4;spacingRight=4;overflow=hidden;points=[[0,0.5],[1,0.5]];portConstraint=eastwest;rotatable=0;whiteSpace=wrap;html=1;" vertex="1" parent="UZzyd5HIegSU0YCeQs_y-102">
          <mxGeometry y="60" width="220" height="30" as="geometry" />
        </mxCell>
        <mxCell id="UZzyd5HIegSU0YCeQs_y-105" value="&lt;span style=&quot;text-align: center;&quot;&gt;doctor_id&lt;/span&gt;&lt;span style=&quot;text-align: center;&quot;&gt;: Long&lt;/span&gt;" style="text;strokeColor=none;fillColor=none;align=left;verticalAlign=middle;spacingLeft=4;spacingRight=4;overflow=hidden;points=[[0,0.5],[1,0.5]];portConstraint=eastwest;rotatable=0;whiteSpace=wrap;html=1;" vertex="1" parent="UZzyd5HIegSU0YCeQs_y-102">
          <mxGeometry y="90" width="220" height="30" as="geometry" />
        </mxCell>
        <mxCell id="UZzyd5HIegSU0YCeQs_y-106" value="&lt;span style=&quot;text-align: center;&quot;&gt;department_id: Long&lt;/span&gt;" style="text;strokeColor=none;fillColor=none;align=left;verticalAlign=middle;spacingLeft=4;spacingRight=4;overflow=hidden;points=[[0,0.5],[1,0.5]];portConstraint=eastwest;rotatable=0;whiteSpace=wrap;html=1;" vertex="1" parent="UZzyd5HIegSU0YCeQs_y-102">
          <mxGeometry y="120" width="220" height="30" as="geometry" />
        </mxCell>
        <mxCell id="UZzyd5HIegSU0YCeQs_y-107" value="&lt;span style=&quot;text-align: center;&quot;&gt;appointment_date&lt;/span&gt;&lt;span style=&quot;text-align: center;&quot;&gt;: Date&lt;/span&gt;" style="text;strokeColor=none;fillColor=none;align=left;verticalAlign=middle;spacingLeft=4;spacingRight=4;overflow=hidden;points=[[0,0.5],[1,0.5]];portConstraint=eastwest;rotatable=0;whiteSpace=wrap;html=1;" vertex="1" parent="UZzyd5HIegSU0YCeQs_y-102">
          <mxGeometry y="150" width="220" height="30" as="geometry" />
        </mxCell>
        <mxCell id="UZzyd5HIegSU0YCeQs_y-108" value="&lt;span style=&quot;text-align: center;&quot;&gt;appointment_time&lt;/span&gt;&lt;span style=&quot;text-align: center;&quot;&gt;: Time&lt;/span&gt;" style="text;strokeColor=none;fillColor=none;align=left;verticalAlign=middle;spacingLeft=4;spacingRight=4;overflow=hidden;points=[[0,0.5],[1,0.5]];portConstraint=eastwest;rotatable=0;whiteSpace=wrap;html=1;" vertex="1" parent="UZzyd5HIegSU0YCeQs_y-102">
          <mxGeometry y="180" width="220" height="30" as="geometry" />
        </mxCell>
        <mxCell id="UZzyd5HIegSU0YCeQs_y-109" value="&lt;span style=&quot;text-align: center;&quot;&gt;status: String&lt;/span&gt;" style="text;strokeColor=none;fillColor=none;align=left;verticalAlign=middle;spacingLeft=4;spacingRight=4;overflow=hidden;points=[[0,0.5],[1,0.5]];portConstraint=eastwest;rotatable=0;whiteSpace=wrap;html=1;" vertex="1" parent="UZzyd5HIegSU0YCeQs_y-102">
          <mxGeometry y="210" width="220" height="30" as="geometry" />
        </mxCell>
        <mxCell id="UZzyd5HIegSU0YCeQs_y-110" style="edgeStyle=orthogonalEdgeStyle;rounded=0;orthogonalLoop=1;jettySize=auto;html=1;entryX=0.343;entryY=1.033;entryDx=0;entryDy=0;entryPerimeter=0;" edge="1" parent="1" source="UZzyd5HIegSU0YCeQs_y-102" target="UZzyd5HIegSU0YCeQs_y-33">
          <mxGeometry relative="1" as="geometry">
            <Array as="points">
              <mxPoint x="338" y="840" />
            </Array>
          </mxGeometry>
        </mxCell>
      </root>
    </mxGraphModel>
  </diagram>
</mxfile>
